<svg width="2000" height="1573" viewBox="0 0 2000 1573" fill="none" xmlns="http://www.w3.org/2000/svg">
<path d="M424.794 1126.87C332.365 1075.8 328.834 736.092 437.719 429.172C437.719 429.172 144.796 402.313 34.4606 756.709C-38.6758 991.817 14.3481 1207.19 102.49 1375.97C231.74 1637.18 378.643 1291.17 424.794 1126.87V1126.87Z" fill="url(#paint0_linear_126_102)"/>
<path d="M1660.23 1032.8C1895.34 202.071 2000 0 2000 0C1409.17 115.883 1306.02 414.544 1178.86 820.325C1155.72 894.344 1098.41 1071.07 1047.27 1227.93C1043.62 1239.09 1040.02 1250.19 1036.43 1261.16C979.811 1411.53 842.617 1416.64 793.881 1346.59C818.848 1404.15 891.984 1488.32 957.177 1521.11C1198.78 1648.28 1522.72 1560.07 1660.17 1032.74L1660.23 1032.8Z" fill="url(#paint1_linear_126_102)"/>
<path d="M1022.94 672.792C987.818 784.135 947.971 917.294 904.467 1072.9C875.654 1176.17 835.429 1262.8 788.017 1334.23C788.017 1334.23 798.735 1357.5 807.499 1372.76C841.104 1431.27 980.189 1410.52 1036.43 1261.16C1040.02 1250.19 1043.62 1239.16 1047.27 1227.93C1058.62 1193.19 1070.22 1157.45 1081.7 1122.08C1005.22 1027.76 978.739 857.019 1022.94 672.792V672.792Z" fill="#200050"/>
<path d="M904.53 1072.9C1065.24 497.138 1177.4 229.875 1177.4 229.875C679.636 305.849 598.24 547.514 490.427 888.796C364.708 1391.92 235.711 1519.98 112.01 1393.81C172.095 1494.88 254.815 1533.78 287.033 1546.52C516.088 1637.5 789.593 1485.3 904.593 1072.9H904.53Z" fill="url(#paint2_linear_126_102)"/>
<defs>
<linearGradient id="paint0_linear_126_102" x1="-6.3949" y1="-255.41" x2="407.141" y2="1586.18" gradientUnits="userSpaceOnUse">
<stop stop-color="#FFAF5B"/>
<stop offset="1" stop-color="#F6642D"/>
</linearGradient>
<linearGradient id="paint1_linear_126_102" x1="1568.24" y1="383.651" x2="912.16" y2="1966.11" gradientUnits="userSpaceOnUse">
<stop stop-color="#5A2FBA"/>
<stop offset="1" stop-color="#2F0C6A"/>
</linearGradient>
<linearGradient id="paint2_linear_126_102" x1="971.488" y1="-234.1" x2="430.09" y2="1498.41" gradientUnits="userSpaceOnUse">
<stop stop-color="#F6642D"/>
<stop offset="1" stop-color="#D42E58"/>
</linearGradient>
</defs>
</svg>
